<svg id="Experienced_cleaners-_Greencleaning.by" data-name="Experienced cleaners- Greencleaning.by" xmlns="http://www.w3.org/2000/svg" width="90.336" height="96.399" viewBox="0 0 90.336 96.399">
  <path id="Path_33" data-name="Path 33" d="M91.438,73.333a1.469,1.469,0,0,1-1.556-1.556c0-3.42-1.244-12.283-12.593-18.5-2.023-1.088-4.511-2.022-7.153-3.11C63.3,47.522,56.3,44.878,55.832,39.127a1.544,1.544,0,0,1,1.4-1.712,1.471,1.471,0,0,1,1.71,1.4c.312,3.887,6.531,6.219,12.439,8.4A58.939,58.939,0,0,1,79,50.476c12.749,7,14.149,17.1,14.149,21.146C92.992,72.711,92.37,73.333,91.438,73.333Zm-87.07,0a1.47,1.47,0,0,1-1.556-1.556c0-4.043,1.4-14.149,14.15-21.146a58.835,58.835,0,0,1,7.619-3.266c5.908-2.176,11.971-4.508,12.439-8.4a1.692,1.692,0,0,1,1.708-1.4,1.57,1.57,0,0,1,1.4,1.71c-.622,5.753-7.619,8.4-14.3,11.041a65.161,65.161,0,0,0-7.153,3.108C7.166,59.495,5.922,68.356,5.922,71.777a1.469,1.469,0,0,1-1.554,1.556Z" transform="translate(-2.812 23.066)" fill="#f26622"/>
  <path id="Path_34" data-name="Path 34" d="M39.26,57.325c-4.665,0-6.219-.932-7.929-2.176-.312-.156-.622-.468-.934-.622-2.02-.622-7.617-2.333-9.639-14.772a7.48,7.48,0,0,1-4.821-7.307,9.7,9.7,0,0,1,.934-4.509,4.3,4.3,0,0,1,2.178-1.866c1.708-.622,7.617-3.11,9.483-8.239a1.639,1.639,0,0,1,1.09-.934,1.581,1.581,0,0,1,1.4.312A51.97,51.97,0,0,0,58.54,26.228a3.563,3.563,0,0,1,3.421,2.332,13.6,13.6,0,0,1,.62,3.887,7.112,7.112,0,0,1-4.82,7.153c-2.02,12.439-7.463,14.147-9.639,14.77-.312.156-.622.466-.934.622-1.71,1.4-3.264,2.332-7.929,2.332ZM30.553,20.788c-2.8,5.131-8.707,7.619-10.573,8.241-.156,0-.312.154-.466.31a10.8,10.8,0,0,0-.468,3.11c0,3.887,3.11,4.354,3.267,4.354a1.9,1.9,0,0,1,1.4,1.244c1.71,11.507,5.909,12.75,7.619,13.372h.154a.546.546,0,0,1,.312.154l1.4.934c1.244.932,2.176,1.554,6.063,1.554s4.82-.622,6.063-1.554a11.005,11.005,0,0,1,1.4-.934c.156,0,.156-.154.312-.154h.154c1.866-.622,6.065-1.866,7.619-13.372a1.5,1.5,0,0,1,1.4-1.244c.31,0,3.264-.622,3.264-4.354a6.214,6.214,0,0,0-.464-2.644.834.834,0,0,0-.624-.464A55.74,55.74,0,0,1,30.553,20.788Z" transform="translate(5.831 9.532)" fill="#f26622"/>
  <path id="Path_35" data-name="Path 35" d="M61.023,37.5a1.86,1.86,0,0,1-1.4-.778,1.481,1.481,0,0,1,.468-2.022c.31-.154,1.554-1.71,1.554-7.929,0-6.685-9.8-17.1-21.768-17.1S18.11,20.092,18.11,26.776c0,6.219,1.244,7.775,1.4,7.929a1.515,1.515,0,0,1,.466,2.022,1.574,1.574,0,0,1-2.178.622c-.62-.466-2.8-2.332-2.8-10.573C15,17.913,26.661,6.562,39.877,6.562S64.755,17.913,64.755,26.776c0,8.241-2.178,10.107-2.954,10.573A1.166,1.166,0,0,1,61.023,37.5Z" transform="translate(5.214 2.765)" fill="#f26622"/>
  <path id="Path_36" data-name="Path 36" d="M52.273,17.73a1.7,1.7,0,0,1-1.554-1.712,10.124,10.124,0,0,0-2.333-8.085c-2.642-2.8-6.841-3.886-9.8-3.886s-7.151,1.088-9.8,3.886a10.119,10.119,0,0,0-2.332,8.085,1.545,1.545,0,0,1-1.4,1.71,1.466,1.466,0,0,1-1.71-1.4,12.615,12.615,0,0,1,3.11-10.417A16.37,16.37,0,0,1,38.59.938,16.383,16.383,0,0,1,50.719,5.913a12.783,12.783,0,0,1,3.11,10.415A1.656,1.656,0,0,1,52.273,17.73ZM38.59,90.184A21.868,21.868,0,0,1,16.979,71.992a1.7,1.7,0,0,1,1.244-1.866,1.706,1.706,0,0,1,1.866,1.244,18.974,18.974,0,0,0,18.5,15.548h.156a18.8,18.8,0,0,0,18.346-15.7,1.586,1.586,0,0,1,3.11.622A22.255,22.255,0,0,1,38.59,90.184Z" transform="translate(6.501 -0.938)" fill="#f26622"/>
  <path id="Path_37" data-name="Path 37" d="M42.336,45.647a1.411,1.411,0,0,1-1.09-.464,1.68,1.68,0,0,1-.464-1.09A1.411,1.411,0,0,1,41.246,43c.156-.156.312-.312.468-.312a1.69,1.69,0,0,1,1.71.312,1.554,1.554,0,0,1-1.088,2.642Z" transform="translate(22.191 26.496)" fill="#f26622"/>
</svg>
