<svg xmlns="http://www.w3.org/2000/svg" xmlns:xlink="http://www.w3.org/1999/xlink" width="98.995" height="98.995" viewBox="0 0 98.995 98.995">
  <defs>
    <clipPath id="clip-path">
      <path id="Path_27" data-name="Path 27" d="M0,0H98.995V98.995H0Z" fill="#f26622"/>
    </clipPath>
  </defs>
  <g id="_7_years_of_experience_-_Greencleaning.by" data-name="7 years of experience - Greencleaning.by" clip-path="url(#clip-path)">
    <path id="Path_25" data-name="Path 25" d="M66.661,31.5a1.835,1.835,0,0,0-1.058-.544v.057L48.533,28.532,40.9,12.986a1.835,1.835,0,0,0-3.286,0L29.98,28.458,12.911,30.936A1.835,1.835,0,0,0,11.9,34.074L24.253,46.113,21.335,63.108A1.835,1.835,0,0,0,24,65.034l15.253-8,15.27,8.02a1.835,1.835,0,0,0,2.661-1.927L54.262,46.132,66.613,34.093a1.835,1.835,0,0,0,.05-2.595ZM51.012,44.186a1.835,1.835,0,0,0-.533,1.614L52.92,60.1,40.073,53.345a1.837,1.837,0,0,0-1.706,0L25.521,60.1l2.441-14.3a1.835,1.835,0,0,0-.533-1.614L17.042,34.074l14.35-2.092a1.835,1.835,0,0,0,1.376-1.009l6.48-12.957,6.425,12.993a1.832,1.832,0,0,0,1.376,1.009L61.4,34.112,51.014,44.186Z" transform="translate(10.248 10.817)" fill="#f26622"/>
    <path id="Path_26" data-name="Path 26" d="M98.627,47.167l-7.946-9.818,1.194-12.462a1.835,1.835,0,0,0-1.138-1.835L79.1,18.3,73.888,6.92a1.835,1.835,0,0,0-1.927-1.047L59.574,7.708,49.37.367a1.835,1.835,0,0,0-2.2,0l-9.82,7.948L24.886,7.122A1.835,1.835,0,0,0,23.05,8.277L18.3,19.9,6.918,25.106a1.835,1.835,0,0,0-1.047,1.928L7.708,39.423.367,49.627a1.835,1.835,0,0,0,0,2.2l7.763,9.818L6.937,74.109a1.831,1.831,0,0,0,1.156,1.835L19.9,80.7l5.211,11.379a1.836,1.836,0,0,0,1.927,1.047l12.388-1.835,10.2,7.341a1.835,1.835,0,0,0,2.2,0l9.819-7.763,12.462,1.192a1.835,1.835,0,0,0,1.835-1.137L80.7,79.1,92.076,73.89a1.835,1.835,0,0,0,1.047-1.928L91.286,59.574l7.341-10.2a1.835,1.835,0,0,0,0-2.2ZM87.818,58.051a1.835,1.835,0,0,0-.312,1.321l1.708,11.746L78.4,76.054a1.835,1.835,0,0,0-.937.99L73.081,88.058,61.26,86.938a1.835,1.835,0,0,0-1.3.385l-9.323,7.341-9.671-6.882a1.835,1.835,0,0,0-1.066-.348h-.257L27.9,89.141,22.959,78.348a1.837,1.837,0,0,0-.99-.937L10.956,73.027l1.119-11.818a1.835,1.835,0,0,0-.385-1.3L4.35,50.582l6.882-9.671a1.839,1.839,0,0,0,.312-1.321L9.837,27.844l10.809-4.936a1.831,1.831,0,0,0,.937-.992L25.969,10.9l11.818,1.119a1.839,1.839,0,0,0,1.3-.386L48.414,4.3l9.671,6.882a1.837,1.837,0,0,0,1.323.312L71.154,9.785l4.936,10.809a1.847,1.847,0,0,0,.99.937l11.013,4.386L86.972,37.736a1.835,1.835,0,0,0,.386,1.3L94.7,48.363l-6.882,9.69Z" transform="translate(0 0)" fill="#f26622"/>
  </g>
</svg>
