<svg xmlns="http://www.w3.org/2000/svg" width="204.139" height="96.425" viewBox="0 0 204.139 96.425">
  <g id="Layer_2" data-name="Layer 2" transform="translate(0)">
    <g id="Layer_1" data-name="Layer 1" transform="translate(0)">
      <g id="Group_2" data-name="Group 2">
        <path id="Path_17" data-name="Path 17" d="M5.759-29.11a3.578,3.578,0,0,0,2.875-1.243L7.6-31.308a2.219,2.219,0,0,1-1.751.826A2.136,2.136,0,0,1,3.62-32.711a2.136,2.136,0,0,1,2.228-2.228,2.24,2.24,0,0,1,1.751.816l1.035-.955a3.6,3.6,0,0,0-2.865-1.234,3.578,3.578,0,0,0-3.78,3.6A3.575,3.575,0,0,0,5.759-29.11Zm6.944-.119h5.1v-1.313H14.314v-5.65H12.7ZM23.3-30.522v-1.612h3.233v-1.253H23.3V-34.9h3.661v-1.293H21.7v6.963h5.392v-1.293Zm13.261,1.293h1.691l-3.114-6.963H33.544l-3.1,6.963h1.651l.617-1.492h3.233Zm-3.333-2.716,1.1-2.666,1.1,2.666Zm13.529-4.248v4.228l-3.462-4.228H41.96v6.963h1.592v-4.228l3.472,4.228h1.323v-6.963Zm6.227,6.963h1.612v-6.963H52.982Zm11.042-6.963v4.228l-3.462-4.228H59.23v6.963h1.592v-4.228l3.472,4.228h1.323v-6.963Zm10.933,5.412a2.558,2.558,0,0,1-1.253.3,2.149,2.149,0,0,1-2.258-2.228,2.144,2.144,0,0,1,2.278-2.228,2.356,2.356,0,0,1,1.8.786l1.035-.955a3.712,3.712,0,0,0-2.915-1.2,3.592,3.592,0,0,0-3.83,3.6,3.583,3.583,0,0,0,3.8,3.6A4.805,4.805,0,0,0,76.429-30V-32.82H74.957ZM88.994-29.11c1.99,0,2.954-.995,2.954-2.159,0-2.557-4.049-1.671-4.049-2.954,0-.438.368-.8,1.323-.8a3.933,3.933,0,0,1,1.93.547l.5-1.224a4.671,4.671,0,0,0-2.417-.617c-1.98,0-2.935.985-2.935,2.169,0,2.586,4.049,1.691,4.049,2.994,0,.428-.388.746-1.343.746a4.1,4.1,0,0,1-2.3-.726l-.547,1.214A4.963,4.963,0,0,0,88.994-29.11Zm8.645-1.413v-1.612h3.233v-1.253H97.639V-34.9H101.3v-1.293H96.037v6.963h5.392v-1.293Zm14.226,1.293L110.3-31.467a2.264,2.264,0,0,0,1.432-2.2c0-1.562-1.164-2.527-3.024-2.527H105.7v6.963h1.612v-1.94h1.482l1.343,1.94ZM110.1-33.666c0,.756-.5,1.214-1.482,1.214h-1.313V-34.88h1.313C109.606-34.88,110.1-34.432,110.1-33.666Zm10.983-2.527-2.149,4.974-2.119-4.974h-1.741l3,6.963h1.592l3.014-6.963Zm5.062,6.963h1.612v-6.963h-1.612Zm9.58.119a3.578,3.578,0,0,0,2.875-1.243l-1.035-.955a2.219,2.219,0,0,1-1.751.826,2.136,2.136,0,0,1-2.228-2.228,2.136,2.136,0,0,1,2.228-2.228,2.24,2.24,0,0,1,1.751.816l1.035-.955a3.6,3.6,0,0,0-2.865-1.234,3.578,3.578,0,0,0-3.78,3.6A3.575,3.575,0,0,0,135.728-29.11Zm8.545-1.413v-1.612h3.233v-1.253h-3.233V-34.9h3.661v-1.293h-5.262v6.963h5.392v-1.293Zm10.346,1.413c1.99,0,2.954-.995,2.954-2.159,0-2.557-4.049-1.671-4.049-2.954,0-.438.368-.8,1.323-.8a3.933,3.933,0,0,1,1.93.547l.5-1.224a4.671,4.671,0,0,0-2.417-.617c-1.98,0-2.935.985-2.935,2.169,0,2.586,4.049,1.691,4.049,2.994,0,.428-.388.746-1.343.746a4.1,4.1,0,0,1-2.3-.726l-.547,1.214A4.963,4.963,0,0,0,154.619-29.11Z" transform="translate(-1.601 121.88)" fill="#333132"/>
        <path id="Path_1" data-name="Path 1" d="M594.884,161.778a35.353,35.353,0,0,1-4.921,18.066,17.122,17.122,0,0,1-7.073-4.274,27.333,27.333,0,0,0,1.192-25.326,17.12,17.12,0,0,1,7.439-3.595A35.411,35.411,0,0,1,594.884,161.778Z" transform="translate(-469.195 -118.045)" fill="#f26622"/>
        <path id="Path_2" data-name="Path 2" d="M347.077,62.053a35.613,35.613,0,1,0-6.749,39.974A35.613,35.613,0,0,0,347.077,62.053Zm-8.629,28.921a27.345,27.345,0,1,1-3.355-32.17A27.347,27.347,0,0,1,338.448,90.974Z" transform="translate(-224.752 -33.446)" fill="#f26622"/>
        <path id="Path_3" data-name="Path 3" d="M519.585,168.23a17.024,17.024,0,0,0,1.547,7.116,21.916,21.916,0,0,1-4.545,6.677c-.22.218-.449.439-.679.648a25.345,25.345,0,0,1,1.459-30.77,1.967,1.967,0,0,1,.146.177,21.959,21.959,0,0,1,4.357,7.607A17.028,17.028,0,0,0,519.585,168.23Z" transform="translate(-411.648 -122.271)" fill="#333132"/>
        <path id="Path_4" data-name="Path 4" d="M50.691,112.643v24.713H42.522V113.17c0-.174,0-.347-.01-.523a17.178,17.178,0,0,0-34.341,0v12.723A7.527,7.527,0,0,0,0,125.714V112.645a25.345,25.345,0,0,1,50.691,0Z" transform="translate(0 -70.272)" fill="#f26622"/>
        <path id="Path_5" data-name="Path 5" d="M817.552,59.669l1.9,6.989a25.7,25.7,0,0,1-4.619.419,25.342,25.342,0,0,1-17.177-6.7v6.7H789.49V0h8.169V38.773l16.09-17.945h11.816L799.28,49.306a17.838,17.838,0,0,0,18.273,10.365Z" transform="translate(-635.497)" fill="#f26622"/>
        <path id="Path_6" data-name="Path 6" d="M871.823,259.681a17.945,17.945,0,0,0-19.9-17.816l-1.892-6.983A25.345,25.345,0,1,1,839.62,280.22l4.8-5.331a17.926,17.926,0,0,0,27.4-15.214Z" transform="translate(-675.848 -188.726)" fill="#f26622"/>
        <path id="Path_7" data-name="Path 7" d="M9.779,299.316a4.837,4.837,0,0,1-1.149,3.142,4.728,4.728,0,0,1-1.085.954,4.859,4.859,0,0,1-5.251,0,4.6,4.6,0,0,1-.546-.406,4.863,4.863,0,1,1,8.036-3.69Z" transform="translate(-0.047 -237.023)" fill="#f26622"/>
        <path id="Path_8" data-name="Path 8" d="M602.774,102.84a25.311,25.311,0,0,0-8.046,1.307,35.765,35.765,0,0,1,4.535,7.24,17.686,17.686,0,0,1,3.511-.355,17.165,17.165,0,1,1-5.071,33.549,35.3,35.3,0,0,1-5.192,6.782,25.345,25.345,0,1,0,10.26-48.522Z" transform="translate(-476.938 -82.781)" fill="#333132"/>
      </g>
    </g>
  </g>
</svg>
