<svg xmlns="http://www.w3.org/2000/svg" width="92.244" height="96.399" viewBox="0 0 92.244 96.399">
  <g id="Price_-_Greencleaning.by" data-name="Price - Greencleaning.by" transform="translate(0)">
    <path id="Path_63" data-name="Path 63" d="M47.522,35.53a3.318,3.318,0,0,1,3.318,3.316h3.318a6.635,6.635,0,0,0-6.635-6.634h-.48v-4.03H43.724v4.03h-.48a6.635,6.635,0,1,0,0,13.27h.48v6.634h-.48A3.318,3.318,0,0,1,39.926,48.8H36.608a6.635,6.635,0,0,0,6.635,6.634h.48v4.03h3.318v-4.03h.48a6.635,6.635,0,1,0,0-13.27h-.48V35.528h.48Zm0,9.95a3.318,3.318,0,1,1,0,6.635h-.48V45.481h.48Zm-3.8-3.316h-.482a3.318,3.318,0,1,1,0-6.635h.48v6.635Z" transform="translate(23.641 17.746)" fill="#f26622"/>
    <path id="Path_64" data-name="Path 64" d="M82.095,2.655a22.458,22.458,0,0,1-4.876,10.6,8.124,8.124,0,0,0-9.637-1.574l-14.48.264a14.762,14.762,0,0,0-10.284,4.363L5.55,53.574a8.294,8.294,0,0,0,0,11.727l10.2,10.218A8.294,8.294,0,0,0,19.6,80.494L46.883,96.251a8.294,8.294,0,0,0,3.7,1.144,8.143,8.143,0,0,0,4.975,1.659H87.071a8.294,8.294,0,0,0,8.294-8.294V38.069a14.928,14.928,0,0,0-4.181-10.335l-11.61-12.04A25.309,25.309,0,0,0,85.412,3.054l-3.318-.4ZM7.887,55.929l37.27-37.285a11.61,11.61,0,0,1,8-3.318L57,15.244l-5.257,1.51a14.928,14.928,0,0,0-8.791,6.882L16.595,69.2a8.548,8.548,0,0,0-.729,1.659L7.887,62.946a4.975,4.975,0,0,1,0-7.017Zm13.4,21.729a4.977,4.977,0,0,1-1.826-6.8L45.821,25.23a11.61,11.61,0,0,1,6.833-5.358l8.757-2.5L51.462,27.7a14.928,14.928,0,0,0-4.2,10.367V90.762a7.841,7.841,0,0,0,.3,2.073L21.289,77.658ZM92.046,38.067V90.762a4.975,4.975,0,0,1-4.975,4.975H55.556a4.977,4.977,0,0,1-4.975-4.975V38.067a11.61,11.61,0,0,1,3.316-8.06L67.8,15.591a4.977,4.977,0,0,1,7.065-.1,14.135,14.135,0,0,1-1.328.88,3.316,3.316,0,1,0,1.1,3.185A19.036,19.036,0,0,0,77.2,17.9l11.61,12.091a11.61,11.61,0,0,1,3.233,8.078Z" transform="translate(-3.122 -2.655)" fill="#f26622"/>
  </g>
</svg>
