<svg xmlns="http://www.w3.org/2000/svg" xmlns:xlink="http://www.w3.org/1999/xlink" width="107.995" height="107.995" viewBox="0 0 107.995 107.995">
  <defs>
    <clipPath id="clip-path">
      <path id="Path_69" data-name="Path 69" d="M0,0H107.995V107.995H0Z" fill="#f26622"/>
    </clipPath>
  </defs>
  <g id="Safe_cleaning_products_-_Greencleaning.by" data-name="Safe cleaning products - Greencleaning.by" clip-path="url(#clip-path)">
    <path id="Path_68" data-name="Path 68" d="M107.967,59.828a16.922,16.922,0,0,0-5.016-11.154,15.992,15.992,0,0,0-9.939-4.634,28.141,28.141,0,0,0,2.854-14.161A26.827,26.827,0,0,0,87.917,12.2,25.2,25.2,0,0,0,70.136,4.782C59.856,4.782,51.5,13.175,48,17.327,44.6,13.148,36.475,4.782,25.774,4.782A25.189,25.189,0,0,0,8,12.2,26.827,26.827,0,0,0,.046,29.881c-.355,6.663,1.34,12.456,5.5,18.783,6.6,10.044,39.8,34.408,41.212,35.44a2.106,2.106,0,0,0,2.5,0c.039-.029,3.716-2.733,8.574-6.453C65.186,84.615,76.506,93.4,77.141,93.893a2.106,2.106,0,0,0,2.584,0c.845-.656,20.762-16.122,24.812-22.3a18.756,18.756,0,0,0,3.431-11.764ZM48,79.778c-6.183-4.592-33.428-25.057-38.93-33.432C5.438,40.821,3.953,35.811,4.258,30.1,4.879,18.466,14.531,9,25.774,9,37.449,9,46.115,21.826,46.2,21.955A2.11,2.11,0,0,0,49.685,22c.091-.129,9.288-13,20.453-13,11.243,0,20.9,9.469,21.516,21.105a24.7,24.7,0,0,1-3.491,14.1l-.2.351c-4.2,1.265-7.589,4.376-9.521,6.5-2.411-2.746-7.184-7.072-13.33-7.072A15.941,15.941,0,0,0,53.86,48.676,16.924,16.924,0,0,0,48.846,59.83,18.553,18.553,0,0,0,52.279,71.6a23.905,23.905,0,0,0,2.526,3.053Q51.419,77.238,48,79.78Zm53.008-10.5C98.177,73.6,84.789,84.551,78.431,89.55,72.051,84.538,58.616,73.561,55.8,69.282a14.421,14.421,0,0,1-2.744-9.228c.347-6.534,5.755-11.85,12.053-11.85,6.534,0,11.49,7.315,11.538,7.386a2.108,2.108,0,0,0,3.485.046C81.584,53.569,86.49,48.2,91.7,48.2c6.3,0,11.706,5.317,12.053,11.85a14.449,14.449,0,0,1-2.746,9.228Z" transform="translate(0 4.44)" fill="#f26622"/>
  </g>
</svg>
