<svg xmlns="http://www.w3.org/2000/svg" width="103.97" height="119.881" viewBox="0 0 103.97 119.881">
  <g id="thumbs-up" transform="translate(-34 512)">
    <path id="Path_174" data-name="Path 174" d="M300.633-511.484c-.539.492-.633.8-.844,2.906-.609,6.562-3.211,11.625-7.406,14.3a16.147,16.147,0,0,1-7.008,2.18c-2.648.234-3.375.68-3.375,2.133,0,1.383.633,1.781,3.4,2.086a26.381,26.381,0,0,1,3.633.633c5.953,1.758,9.914,7.547,10.758,15.7.258,2.484.609,3.258,1.617,3.492,1.57.328,2.625-.867,2.625-3.023a23.755,23.755,0,0,1,2.953-10.031,15.679,15.679,0,0,1,5.133-5.039,18.921,18.921,0,0,1,6.8-1.828c2.25-.187,2.93-.633,2.93-1.969-.023-1.5-.937-2.133-3.14-2.133a15.374,15.374,0,0,1-3.047-.469c-6.656-1.687-10.8-7.453-11.625-16.125-.187-2.016-.281-2.32-.82-2.812a2.357,2.357,0,0,0-1.289-.516A2.357,2.357,0,0,0,300.633-511.484Zm1.523,11.976a12.206,12.206,0,0,0,1.078,2.109,22.085,22.085,0,0,0,5.883,6.328,8.447,8.447,0,0,1,1.477,1.1,3.091,3.091,0,0,1-.891.633,18.752,18.752,0,0,0-6.891,7.57,7.977,7.977,0,0,1-.891,1.617,7.983,7.983,0,0,1-.891-1.617,18.754,18.754,0,0,0-6.89-7.57,3.09,3.09,0,0,1-.891-.633,8.443,8.443,0,0,1,1.476-1.1,22.084,22.084,0,0,0,5.883-6.328,12.2,12.2,0,0,0,1.078-2.109.289.289,0,0,1,.234-.3C302.062-499.813,302.156-499.672,302.156-499.508Z" transform="translate(-189.876)" fill="#f26622"/>
    <path id="Path_175" data-name="Path 175" d="M179.785-485.25c-.961,1.148-.7,1.828,1.617,4.1,1.711,1.687,2.063,1.945,2.789,1.945a1.867,1.867,0,0,0,1.969-1.711c.141-.867.094-.937-1.969-3-1.852-1.852-2.18-2.086-2.93-2.086A1.64,1.64,0,0,0,179.785-485.25Z" transform="translate(-111.216 -19.906)" fill="#f26622"/>
    <path id="Path_176" data-name="Path 176" d="M219.969-484.031c-1.8,1.8-1.969,2.062-1.969,2.906a1.8,1.8,0,0,0,1.969,1.922c.8,0,1.1-.188,2.648-1.711,2.461-2.344,2.789-3.281,1.641-4.57a1.693,1.693,0,0,0-1.383-.516C222.031-486,221.773-485.836,219.969-484.031Z" transform="translate(-140.876 -19.906)" fill="#f26622"/>
    <path id="Path_177" data-name="Path 177" d="M182.793-447.344c-1.242.914-3.352,3.234-3.516,3.914a2.254,2.254,0,0,0,1.1,2.2c1.008.563,1.8.164,3.914-1.969,1.688-1.711,1.922-2.039,1.922-2.813A1.963,1.963,0,0,0,184.387-448,3.545,3.545,0,0,0,182.793-447.344Z" transform="translate(-111.2 -49)" fill="#f26622"/>
    <path id="Path_178" data-name="Path 178" d="M218.609-447.588a1.493,1.493,0,0,0-.609,1.43c0,.867.164,1.1,1.9,2.906,1.992,2.039,2.812,2.461,3.773,1.945a1.868,1.868,0,0,0,1.125-1.828c0-.7-.258-1.078-2.062-2.883C220.461-448.291,219.8-448.525,218.609-447.588Z" transform="translate(-140.876 -48.92)" fill="#f26622"/>
    <path id="Path_179" data-name="Path 179" d="M90.17-409.433c-.8.328-1.172,1.149-1.336,2.93a14.122,14.122,0,0,1-1.43,5.391,8.631,8.631,0,0,1-7.031,5.391c-2.086.211-2.391.3-2.93.867a1.971,1.971,0,0,0,1.5,3.234,10.268,10.268,0,0,1,5.93,2.062c1.922,1.453,3.633,5.273,3.961,8.859.141,1.594.258,1.945.82,2.484a1.613,1.613,0,0,0,2.461.117c.539-.469.656-.844.937-2.883.844-6.117,3.352-9.445,7.781-10.383a12.948,12.948,0,0,1,2.062-.258,1.971,1.971,0,0,0,1.5-3.234c-.516-.539-.867-.656-2.7-.844-4.828-.469-8.133-4.57-8.7-10.828a3.848,3.848,0,0,0-.656-2.344A1.958,1.958,0,0,0,90.17-409.433ZM91.53-397.9a14.625,14.625,0,0,0,2.2,2.7l1.711,1.664L94.2-392.465a14.786,14.786,0,0,0-2.18,2.484,9.292,9.292,0,0,1-1.1,1.43,9.3,9.3,0,0,1-1.1-1.43,14.786,14.786,0,0,0-2.18-2.484L86.4-393.543l1.43-1.359a16.236,16.236,0,0,0,2.273-2.672,14.279,14.279,0,0,1,.867-1.312A5.717,5.717,0,0,1,91.53-397.9Z" transform="translate(-32.897 -78.427)" fill="#f26622"/>
    <path id="Path_180" data-name="Path 180" d="M88.726-369.5a8.438,8.438,0,0,0-5.25,4.383,6.611,6.611,0,0,0-.586,3.4,16.833,16.833,0,0,0,.328,3.4,14.72,14.72,0,0,1-.094,6.562c-1.641,4.922-5.812,9.609-12.914,14.414a22.116,22.116,0,0,1-7.664,3.633c-2.742.656-2.883.633-3.211-.445a8.987,8.987,0,0,0-3.961-4.172l-1.336-.656H47.008c-6.726,0-7.078.023-8.133.516a9.949,9.949,0,0,0-3.609,3.141C33.976-333.271,34-333.763,34-311.076c0,20.32.023,20.953.469,22.429a8.363,8.363,0,0,0,4.172,4.781l1.336.656h7.031c6.726,0,7.078-.023,8.133-.516a9.614,9.614,0,0,0,4.078-4.008l.609-1.289,1.266.164c1.617.188,3.187.8,5.953,2.344a24.271,24.271,0,0,0,7.266,2.883c1.852.4,3.539.422,22.851.422h20.859l1.289-.609a8.087,8.087,0,0,0,4.641-6.89,5.868,5.868,0,0,0-.539-3.258,7.269,7.269,0,0,1-.539-1.641,7.048,7.048,0,0,1,1.008-.562,9.131,9.131,0,0,0,3.469-3.75,9.374,9.374,0,0,0-.047-6.445,3.885,3.885,0,0,1-.469-1.2c.047-.023.586-.328,1.2-.68a7.83,7.83,0,0,0,1.594-12.4l-1.336-1.336.844-1.687a5.868,5.868,0,0,0,.844-3.492,5.793,5.793,0,0,0-.773-3.328,8.046,8.046,0,0,0-4.008-3.914l-1.312-.609-13.523-.07-13.5-.07,1.008-2.156c5.859-12.609,5.953-23.132.234-29.179-2.156-2.3-3.891-3.164-6.516-3.258A9.516,9.516,0,0,0,88.726-369.5Zm4.453,4.172a9.878,9.878,0,0,1,3.586,3.633,15.075,15.075,0,0,1,1.547,7.125c-.023,5.086-1.477,10.242-4.828,16.875a29.164,29.164,0,0,0-2.062,4.758,1.865,1.865,0,0,0,.586,1.219l.562.586h15.07c14.156,0,15.117.047,16.031.445a3.987,3.987,0,0,1,.211,7.125c-.3.187-2.789.328-7.57.4l-7.125.117-.563.656a1.83,1.83,0,0,0,.023,2.625l.562.586h7.453a71.314,71.314,0,0,1,8.344.258,3.964,3.964,0,0,1-.211,7.711c-.492.117-4.219.234-8.25.234H109.21l-.562.586a1.83,1.83,0,0,0-.023,2.625l.563.656,6.187.117c6.68.117,6.773.141,7.8,1.5a3.926,3.926,0,0,1-1.641,6.023c-.82.375-1.617.445-6.633.445h-5.7l-.562.586a1.779,1.779,0,0,0,.094,2.719l.68.68h3.8c3.328,0,3.867.047,4.711.469a4.051,4.051,0,0,1,1.992,4.359,4.759,4.759,0,0,1-2.7,2.93c-.586.164-7.148.211-21,.164-20.109-.094-20.156-.094-21.984-.609a30.168,30.168,0,0,1-6.75-3.047,17.335,17.335,0,0,0-6.7-2.156h-.773v-36.328h.68a26.609,26.609,0,0,0,7.125-2.062,52.06,52.06,0,0,0,12.351-8.953c4.078-4.055,6.258-7.687,7.148-11.836.469-2.2.445-3.539-.141-6.82a17.05,17.05,0,0,1-.328-3.656C87.3-365.145,90.554-366.552,93.179-365.333Zm-39.96,30.445a4.527,4.527,0,0,1,2.555,2.414c.188.445.258,7.336.258,21.4,0,16.875-.07,20.882-.328,21.492a4.678,4.678,0,0,1-2.766,2.391c-.422.094-3.375.117-6.539.07l-5.766-.07-.867-.68a4.972,4.972,0,0,1-1.336-1.641c-.422-.914-.445-1.945-.445-21.539,0-17.976.047-20.672.352-21.421a3.575,3.575,0,0,1,2.109-2.2c.82-.375,1.594-.445,6.445-.445A57.1,57.1,0,0,1,53.218-334.888Z" transform="translate(0 -108.91)" fill="#f26622"/>
    <path id="Path_181" data-name="Path 181" d="M428.055-332.442c-.961.539-1.055.914-1.055,3.773,0,2.648.023,2.812.586,3.352a1.79,1.79,0,0,0,2.812-.164c.61-.727.633-.8.539-3.375-.07-2.3-.141-2.719-.539-3.141A2.267,2.267,0,0,0,428.055-332.442Z" transform="translate(-300.892 -137.348)" fill="#f26622"/>
    <path id="Path_182" data-name="Path 182" d="M393.875-298.626a1.948,1.948,0,0,0-.492,3.141c.492.469.8.516,3.352.516,2.625,0,2.859-.047,3.3-.539a3.076,3.076,0,0,0,.633-1.031,2.1,2.1,0,0,0-1.149-2.133A13.908,13.908,0,0,0,393.875-298.626Z" transform="translate(-274.705 -163.125)" fill="#f26622"/>
    <path id="Path_183" data-name="Path 183" d="M445.456-298.789a1.95,1.95,0,0,0-.82,3.234c.539.562.7.586,3.4.586,2.484,0,2.859-.047,3.281-.469a1.99,1.99,0,0,0-.469-3.211A17.226,17.226,0,0,0,445.456-298.789Z" transform="translate(-313.958 -163.126)" fill="#f26622"/>
    <path id="Path_184" data-name="Path 184" d="M428.406-281.769a3.72,3.72,0,0,0-.867.609c-.492.445-.539.68-.539,3.328s.047,2.883.539,3.328a1.971,1.971,0,0,0,2.086.469c1.008-.258,1.359-1.219,1.359-3.8,0-2.6-.3-3.445-1.43-3.844a4.425,4.425,0,0,0-.773-.234C428.758-281.91,428.594-281.84,428.406-281.769Z" transform="translate(-300.892 -176.161)" fill="#f26622"/>
  </g>
</svg>
